<svg width="20" height="20" viewBox="0 0 20 20" fill="none" xmlns="http://www.w3.org/2000/svg">
<path fill-rule="evenodd" clip-rule="evenodd" d="M10 1.2875C4.95417 1.2875 0.869167 5.35167 0.869167 10.3567C0.869167 14.0317 3.07167 17.1942 6.24167 18.6167C6.57333 18.7658 6.8975 18.7067 7.15083 18.5167C7.29094 18.4076 7.40387 18.2675 7.48078 18.1075C7.5577 17.9474 7.59651 17.7717 7.59417 17.5942V17.1192L6.46333 16.9658L6.43833 16.9617C5.815 16.84 5.39417 16.6208 5.08583 16.305C4.82667 16.0392 4.66833 15.7208 4.53417 15.4508L4.4875 15.3567C4.36316 15.0982 4.22776 14.8452 4.08167 14.5983C3.96917 14.42 3.88167 14.3283 3.795 14.2708C3.575 14.125 3.36333 13.8775 3.36333 13.5683C3.36258 13.4793 3.38163 13.3913 3.41911 13.3106C3.45658 13.2299 3.51154 13.1585 3.58 13.1017C3.70907 12.9991 3.87021 12.9454 4.035 12.95C4.22 12.95 4.39417 13.0067 4.53917 13.0717C4.6875 13.1383 4.835 13.2267 4.9725 13.3183C5.3075 13.5417 5.6375 13.8058 5.91667 14.1317C6.2075 14.47 6.41333 14.685 6.72333 14.7292C6.97833 14.7658 7.23833 14.7667 7.44083 14.7575C7.44917 14.7086 7.46028 14.6578 7.47417 14.605C7.49833 14.51 7.53167 14.4025 7.57917 14.2908C7.33169 14.2337 7.08768 14.1625 6.84833 14.0775C6.30333 13.8842 5.69583 13.5833 5.2875 13.1275C4.83917 12.6258 4.56167 12.1783 4.40667 11.655C4.25583 11.145 4.23083 10.5925 4.23083 9.9125C4.23083 8.87083 4.68167 7.99333 5.02 7.5275C4.8902 7.11961 4.79678 6.70103 4.74083 6.27667C4.70375 6.00904 4.70403 5.73755 4.74167 5.47C4.78333 5.22583 4.8875 4.92583 5.16167 4.745C5.42583 4.56917 5.73583 4.57667 5.9775 4.62167C6.22833 4.66917 6.48917 4.77333 6.72917 4.8925C7.12 5.08583 7.50833 5.34417 7.79917 5.56333C8.30083 5.41583 9.18833 5.22583 9.99083 5.20833H10.0092C10.8125 5.22583 11.66 5.41583 12.1492 5.5625C12.4408 5.34417 12.8283 5.085 13.2183 4.8925C13.4583 4.77333 13.7183 4.66917 13.97 4.62167C14.2117 4.57667 14.5217 4.56917 14.7867 4.74417C15.06 4.92583 15.165 5.22583 15.2058 5.47C15.2483 5.72417 15.2383 6.00833 15.2058 6.27667C15.1502 6.70101 15.057 7.11959 14.9275 7.5275C15.2658 7.99417 15.7167 8.87167 15.7167 9.9125C15.7167 10.5925 15.6917 11.145 15.5417 11.6542C15.3858 12.1792 15.1083 12.6258 14.66 13.1275C14.2517 13.5833 13.6442 13.8842 13.0992 14.0775C12.8095 14.178 12.5139 14.2607 12.2142 14.325C12.3167 14.635 12.3533 14.8858 12.3533 15.03V17.605C12.3533 17.9967 12.5358 18.3308 12.795 18.5258C13.0467 18.7167 13.37 18.7758 13.7017 18.6308C16.9017 17.2208 19.13 14.05 19.13 10.3558C19.13 5.35167 15.0467 1.2875 10 1.2875ZM7.89667 15.5917H7.89333L7.88667 15.5933L7.8625 15.5967L7.77917 15.6058C7.68325 15.6154 7.58711 15.6227 7.49083 15.6275C7.19397 15.642 6.8964 15.63 6.60167 15.5917C5.9425 15.4983 5.54167 15.0317 5.2825 14.7283L5.2575 14.7C5.17214 14.6023 5.08116 14.5096 4.985 14.4225C5.07056 14.5819 5.16083 14.7569 5.25583 14.9475L5.26417 14.9642L5.30667 15.0508C5.4525 15.3408 5.54833 15.5342 5.7075 15.6958C5.8625 15.8542 6.10417 16.0075 6.5925 16.1042L8.0875 16.3067C8.19206 16.3205 8.288 16.3719 8.35734 16.4514C8.42669 16.5308 8.46467 16.6329 8.46417 16.7383V17.5942C8.46417 18.2608 8.15167 18.855 7.6725 19.215C7.4208 19.407 7.12155 19.5267 6.8069 19.5614C6.49225 19.596 6.17411 19.5443 5.88667 19.4117C2.41833 17.8558 0 14.3917 0 10.3567C0 4.86333 4.48083 0.416666 10 0.416666C15.5192 0.416666 20 4.86333 20 10.3567C20 14.4125 17.5508 17.8858 14.0525 19.4283C13.7649 19.5587 13.4472 19.6084 13.1336 19.5721C12.8199 19.5359 12.522 19.415 12.2717 19.2225C12.0244 19.0318 11.8245 18.7865 11.6878 18.5057C11.551 18.225 11.4811 17.9164 11.4833 17.6042V15.0292C11.4833 14.9708 11.4425 14.6342 11.215 14.1817C11.1836 14.1189 11.1678 14.0495 11.1689 13.9794C11.17 13.9092 11.188 13.8404 11.2213 13.7786C11.2547 13.7169 11.3024 13.6641 11.3605 13.6248C11.4186 13.5854 11.4853 13.5606 11.555 13.5525C11.9822 13.4989 12.4024 13.3994 12.8083 13.2558C13.3033 13.0808 13.7475 12.8408 14.0117 12.5458C14.4042 12.1075 14.6 11.7708 14.7075 11.4067C14.8192 11.0292 14.8475 10.59 14.8475 9.9125C14.8475 8.96167 14.3475 8.1625 14.1175 7.905C14.0651 7.84694 14.0293 7.77577 14.014 7.69904C13.9988 7.6223 14.0046 7.54287 14.0308 7.46917C14.178 7.04902 14.2827 6.61518 14.3433 6.17417C14.37 5.945 14.3717 5.75333 14.3483 5.615C14.3422 5.5646 14.327 5.51575 14.3033 5.47083C14.2459 5.46126 14.1872 5.46382 14.1308 5.47833C13.9892 5.505 13.8083 5.57167 13.6033 5.67333C13.195 5.875 12.77 6.17333 12.5067 6.38667C12.4486 6.43378 12.3793 6.46507 12.3056 6.47748C12.2318 6.48989 12.1561 6.48301 12.0858 6.4575C11.4111 6.23673 10.7093 6.10971 10 6.08C9.16083 6.1 8.1925 6.33833 7.86167 6.4575C7.79137 6.48301 7.71567 6.48989 7.64193 6.47748C7.56818 6.46507 7.49891 6.43378 7.44083 6.38667C7.09955 6.11351 6.73222 5.87458 6.34417 5.67333C6.17729 5.58562 5.99968 5.52007 5.81583 5.47833C5.75975 5.46393 5.70129 5.46138 5.64417 5.47083C5.62051 5.51575 5.60526 5.5646 5.59917 5.615C5.57583 5.75333 5.5775 5.945 5.60417 6.17417C5.66483 6.61518 5.76952 7.04902 5.91667 7.46917C5.96917 7.61917 5.93667 7.78583 5.83 7.905C5.6 8.1625 5.1 8.96167 5.1 9.9125C5.1 10.5892 5.12833 11.0292 5.24 11.4067C5.34833 11.7708 5.54333 12.1067 5.935 12.5458C6.2 12.8408 6.64333 13.0808 7.13917 13.2558C7.54482 13.3993 7.96474 13.4988 8.39167 13.5525C8.4795 13.5619 8.56239 13.5979 8.6293 13.6556C8.69621 13.7132 8.74396 13.7899 8.76622 13.8754C8.78847 13.9609 8.78417 14.0512 8.75388 14.1342C8.7236 14.2171 8.66876 14.2889 8.59667 14.34C8.45917 14.4383 8.36833 14.615 8.3175 14.8192C8.29155 14.9243 8.27593 15.0318 8.27083 15.14V15.1558C8.27243 15.2616 8.23526 15.3644 8.16634 15.4447C8.09741 15.5249 8.00149 15.5772 7.89667 15.5917Z" fill="black"/>
</svg>
