<svg width="20" height="20" viewBox="0 0 20 20" fill="none" xmlns="http://www.w3.org/2000/svg">
<path d="M13.3334 15C13.7754 15 14.1993 15.1756 14.5119 15.4882C14.8244 15.8007 15 16.2246 15 16.6667C15 17.1087 14.8244 17.5326 14.5119 17.8452C14.1993 18.1577 13.7754 18.3333 13.3334 18.3333C12.8913 18.3333 12.4674 18.1577 12.1549 17.8452C11.8423 17.5326 11.6667 17.1087 11.6667 16.6667C11.6667 16.2246 11.8423 15.8007 12.1549 15.4882C12.4674 15.1756 12.8913 15 13.3334 15ZM13.3334 15.8333C13.1124 15.8333 12.9004 15.9211 12.7441 16.0774C12.5878 16.2337 12.5 16.4457 12.5 16.6667C12.5 16.8877 12.5878 17.0996 12.7441 17.2559C12.9004 17.4122 13.1124 17.5 13.3334 17.5C13.5544 17.5 13.7663 17.4122 13.9226 17.2559C14.0789 17.0996 14.1667 16.8877 14.1667 16.6667C14.1667 16.4457 14.0789 16.2337 13.9226 16.0774C13.7663 15.9211 13.5544 15.8333 13.3334 15.8333ZM5.83337 15C6.2754 15 6.69932 15.1756 7.01188 15.4882C7.32445 15.8007 7.50004 16.2246 7.50004 16.6667C7.50004 17.1087 7.32445 17.5326 7.01188 17.8452C6.69932 18.1577 6.2754 18.3333 5.83337 18.3333C5.39135 18.3333 4.96742 18.1577 4.65486 17.8452C4.3423 17.5326 4.16671 17.1087 4.16671 16.6667C4.16671 16.2246 4.3423 15.8007 4.65486 15.4882C4.96742 15.1756 5.39135 15 5.83337 15ZM5.83337 15.8333C5.61236 15.8333 5.4004 15.9211 5.24412 16.0774C5.08784 16.2337 5.00004 16.4457 5.00004 16.6667C5.00004 16.8877 5.08784 17.0996 5.24412 17.2559C5.4004 17.4122 5.61236 17.5 5.83337 17.5C6.05439 17.5 6.26635 17.4122 6.42263 17.2559C6.57891 17.0996 6.66671 16.8877 6.66671 16.6667C6.66671 16.4457 6.57891 16.2337 6.42263 16.0774C6.26635 15.9211 6.05439 15.8333 5.83337 15.8333ZM15 5H3.55837L5.68337 10H12.5C12.775 10 13.0167 9.86667 13.1667 9.66667L15.6667 6.33333C15.775 6.19167 15.8334 6.01667 15.8334 5.83333C15.8334 5.61232 15.7456 5.40036 15.5893 5.24408C15.433 5.0878 15.2211 5 15 5ZM12.5 10.8333H5.72504L5.08337 12.1333L5.00004 12.5C5.00004 12.721 5.08784 12.933 5.24412 13.0893C5.4004 13.2455 5.61236 13.3333 5.83337 13.3333H15V14.1667H5.83337C5.39135 14.1667 4.96742 13.9911 4.65486 13.6785C4.3423 13.3659 4.16671 12.942 4.16671 12.5C4.16646 12.2172 4.23815 11.9391 4.37504 11.6917L4.97504 10.4667L1.95004 3.33333H0.833374V2.5H2.50004L3.20837 4.16667H15C15.4421 4.16667 15.866 4.34226 16.1786 4.65482C16.4911 4.96738 16.6667 5.39131 16.6667 5.83333C16.6667 6.25 16.525 6.6 16.2917 6.88333L13.8667 10.125C13.5667 10.55 13.0667 10.8333 12.5 10.8333Z" fill="black"/>
</svg>
