<svg width="20" height="20" viewBox="0 0 20 20" fill="none" xmlns="http://www.w3.org/2000/svg">
<path d="M5.10574 2.52428C5.10961 3.01826 4.9189 3.49392 4.57484 3.8484C4.23079 4.20288 3.76104 4.4077 3.26716 4.41857C2.77432 4.40067 2.3072 4.19409 1.96236 3.84153C1.61751 3.48898 1.42131 3.0174 1.41431 2.52428C1.43561 2.04372 1.63893 1.58926 1.98304 1.25312C2.32714 0.916974 2.78623 0.724334 3.26716 0.714285C3.74668 0.724526 4.20414 0.917649 4.54593 1.25413C4.88772 1.5906 5.08799 2.04499 5.10574 2.52428ZM1.61288 7.78428C1.61288 6.69571 2.30574 6.86571 3.26716 6.86571C4.22859 6.86571 4.90716 6.69571 4.90716 7.78428V18.39C4.90716 19.4929 4.21431 19.2671 3.26716 19.2671C2.32002 19.2671 1.61288 19.4929 1.61288 18.39V7.78428ZM7.76431 7.78571C7.76431 7.17714 7.99002 6.95 8.34288 6.88C8.69574 6.81 9.91288 6.88 10.3372 6.88C10.7615 6.88 10.9315 7.57286 10.9172 8.09571C11.2805 7.60928 11.7623 7.22394 12.3167 6.97638C12.8711 6.72882 13.4796 6.62728 14.0843 6.68143C14.6782 6.64516 15.2731 6.73423 15.8304 6.94285C16.3877 7.15146 16.8948 7.47496 17.3189 7.89233C17.743 8.30969 18.0746 8.8116 18.2921 9.36545C18.5096 9.9193 18.6082 10.5127 18.5815 11.1071V18.3471C18.5815 19.45 17.9029 19.2243 16.94 19.2243C15.9786 19.2243 15.3 19.45 15.3 18.3471V12.6914C15.3249 12.4004 15.2869 12.1074 15.1885 11.8324C15.0902 11.5573 14.9338 11.3067 14.73 11.0974C14.5261 10.8882 14.2797 10.7252 14.0073 10.6197C13.7349 10.5142 13.443 10.4685 13.1515 10.4857C12.861 10.4781 12.5722 10.5322 12.3043 10.6447C12.0363 10.7571 11.7954 10.9252 11.5973 11.1378C11.3993 11.3504 11.2487 11.6027 11.1556 11.878C11.0625 12.1532 11.0289 12.4451 11.0572 12.7343V18.39C11.0572 19.4929 10.3643 19.2671 9.40288 19.2671C8.44145 19.2671 7.76288 19.4929 7.76288 18.39V7.78428L7.76431 7.78571Z" stroke="black" stroke-linecap="round" stroke-linejoin="round"/>
</svg>
